<svg width="36" height="20" viewBox="0 0 36 20" fill="none" xmlns="http://www.w3.org/2000/svg">
<path d="M31.0351 11.1081L24.5195 17.6262C24.4018 17.7398 24.308 17.8758 24.2434 18.0261C24.1788 18.1764 24.1448 18.3381 24.1434 18.5017C24.142 18.6653 24.1732 18.8276 24.2351 18.979C24.2971 19.1304 24.3886 19.268 24.5043 19.3837C24.6199 19.4994 24.7575 19.5909 24.9089 19.6528C25.0604 19.7148 25.2226 19.7459 25.3862 19.7445C25.5498 19.7431 25.7115 19.7091 25.8618 19.6445C26.0122 19.58 26.1481 19.4861 26.2618 19.3684L34.8055 10.8223C34.9443 10.7068 35.0561 10.5621 35.1328 10.3986C35.2094 10.235 35.2491 10.0566 35.249 9.87598V9.87352C35.249 9.71143 35.217 9.55094 35.1548 9.40125C35.0927 9.25155 35.0016 9.11559 34.8868 9.00116L34.8621 8.97652L26.2618 0.376158C26.1481 0.258476 26.0122 0.164609 25.8618 0.100034C25.7115 0.0354584 25.5498 0.00146819 25.3862 4.65221e-05C25.2226 -0.00137514 25.0604 0.0297999 24.9089 0.0917531C24.7575 0.153706 24.6199 0.245197 24.5043 0.360886C24.3886 0.476575 24.2971 0.614147 24.2351 0.765573C24.1732 0.916999 24.142 1.07925 24.1434 1.24285C24.1448 1.40645 24.1788 1.56813 24.2434 1.71846C24.308 1.86879 24.4018 2.00475 24.5195 2.11841L31.0474 8.64384L1.98117 8.64384C1.65438 8.64384 1.34098 8.77365 1.10991 9.00473C0.878838 9.2358 0.749023 9.5492 0.749023 9.87598C0.749023 10.2028 0.878838 10.5162 1.10991 10.7472C1.34098 10.9783 1.65438 11.1081 1.98117 11.1081L31.0351 11.1081Z" fill="white"/>
</svg>
